# 3ds Max Wavefront OBJ Exporter v0.97b - (c)2007 guruware
# File Created: 22.09.2020 15:30:37

mtllib Cajita.mtl

#
# object Cajita
#

v  -3.6632 0.0000 3.7947
v  -3.6632 0.0000 -3.7947
v  3.6632 0.0000 -3.7947
v  3.6632 0.0000 3.7947
v  -2.6110 1.6235 2.7426
v  2.6110 1.6235 2.7426
v  2.6110 1.6235 -2.7426
v  -2.6110 1.6235 -2.7426
v  3.6632 3.7277 3.7947
v  -3.6632 3.7277 3.7947
v  3.6632 3.7277 -3.7947
v  -3.6632 3.7277 -3.7947
v  2.6110 3.7277 2.7426
v  -2.6110 3.7277 2.7426
v  2.6110 3.7277 -2.7426
v  -2.6110 3.7277 -2.7426
# 16 vertices

vn -0.5774 -0.5774 0.5774
vn -0.5774 -0.5774 -0.5774
vn 0.5774 -0.5774 -0.5774
vn 0.5774 -0.5774 0.5774
vn 0.5774 0.5774 -0.5774
vn -0.5774 0.5774 -0.5774
vn -0.5774 0.5774 0.5774
vn 0.5774 0.5774 0.5774
vn -0.3015 0.9045 -0.3015
vn 0.3015 0.9045 -0.3015
vn -0.3015 0.9045 0.3015
vn 0.3015 0.9045 0.3015
# 12 vertex normals

vt 0.4695 0.0005 0.0000
vt 0.4695 0.4096 0.0000
vt 0.0604 0.4096 0.0000
vt 0.0604 0.0005 0.0000
vt 0.7102 0.6871 0.0000
vt 0.9966 0.6871 0.0000
vt 0.9966 0.9880 0.0000
vt 0.7102 0.9880 0.0000
vt 0.3830 0.4798 0.0000
vt 0.6861 0.4798 0.0000
vt 0.6861 0.7829 0.0000
vt 0.3830 0.7829 0.0000
vt 0.0696 0.4705 0.0000
vt 0.3800 0.4705 0.0000
vt 0.3800 0.7809 0.0000
vt 0.0696 0.7809 0.0000
vt 0.6964 0.3830 0.0000
vt 0.9995 0.3830 0.0000
vt 0.9995 0.6861 0.0000
vt 0.6964 0.6861 0.0000
vt 0.5305 0.0696 0.0000
vt 0.8408 0.0696 0.0000
vt 0.8408 0.3800 0.0000
vt 0.5305 0.3800 0.0000
vt 0.4705 0.0005 0.0000
vt 0.8724 0.0005 0.0000
vt 0.8147 0.0582 0.0000
vt 0.5283 0.0582 0.0000
vt 0.0582 0.3738 0.0000
vt 0.0582 0.7900 0.0000
vt 0.0005 0.7323 0.0000
vt 0.0005 0.4315 0.0000
vt 0.4715 0.4683 0.0000
vt 0.0696 0.4683 0.0000
vt 0.1273 0.4106 0.0000
vt 0.4138 0.4106 0.0000
vt 0.0005 0.4214 0.0000
vt 0.0005 0.0051 0.0000
vt 0.0582 0.0628 0.0000
vt 0.0582 0.3637 0.0000
vt 0.3975 0.8993 0.0000
vt 0.1111 0.8993 0.0000
vt 0.1111 0.7839 0.0000
vt 0.3975 0.7839 0.0000
vt 0.9592 0.0696 0.0000
vt 0.9592 0.3705 0.0000
vt 0.8438 0.3705 0.0000
vt 0.8438 0.0696 0.0000
vt 0.4106 0.7839 0.0000
vt 0.6971 0.7839 0.0000
vt 0.6971 0.8993 0.0000
vt 0.4106 0.8993 0.0000
vt 0.4705 0.4276 0.0000
vt 0.4705 0.0696 0.0000
vt 0.5289 0.0696 0.0000
vt 0.5289 0.4276 0.0000
# 56 texture coords

o Cajita
g Cajita
usemtl wire_229166215
s 2
f 1/1/1 2/2/2 3/3/3 4/4/4 
s 4
f 5/5/5 6/6/6 7/7/7 8/8/8 
s 8
f 1/9/1 4/10/4 9/11/8 10/12/7 
s 16
f 4/13/4 3/14/3 11/15/5 9/16/8 
s 32
f 3/17/3 2/18/2 12/19/6 11/20/5 
s 64
f 2/21/2 1/22/1 10/23/7 12/24/6 
s off
f 10/25/7 9/26/8 13/27/9 14/28/10 
f 9/29/8 11/30/5 15/31/11 13/32/9 
f 11/33/5 12/34/6 16/35/12 15/36/11 
f 12/37/6 10/38/7 14/39/10 16/40/12 
f 14/41/10 13/42/9 6/43/6 5/44/5 
f 13/45/9 15/46/11 7/47/7 6/48/6 
f 15/49/11 16/50/12 8/51/8 7/52/7 
f 16/53/12 14/54/10 5/55/5 8/56/8 
# 14 polygons

