# 3ds Max Wavefront OBJ Exporter v0.97b - (c)2007 guruware
# File Created: 22.09.2020 00:39:04

mtllib avioncito.mtl

#
# object Plane005
#

v  0.0446 -4.1196 11.7892
v  -0.1266 3.7754 11.8415
v  0.0446 -2.4104 -11.7538
v  0.0446 -4.1202 -11.8035
v  -6.1874 3.7311 11.8532
v  -0.5999 -2.4103 -11.7537
v  0.2157 3.7754 11.8415
v  0.6395 -2.4103 -11.7537
v  6.2766 3.7311 11.8532
v  0.0446 -2.2190 -11.8035
v  -0.0000 3.9224 11.8035
v  0.0446 -3.9224 11.8035
v  0.0446 -3.9224 -11.8035
v  -6.1874 3.9224 11.8035
v  -0.5999 -2.2190 -11.8035
v  0.0891 3.9224 11.8035
v  6.2766 3.9224 11.8035
v  0.6395 -2.2190 -11.8035
# 18 vertices

vn -0.9993 -0.0236 0.0274
vn -0.1212 -0.1964 0.9730
vn -0.3861 -0.7935 -0.4704
vn -0.0000 1.0000 0.0000
vn -0.6426 -0.4211 0.6401
vn -0.5032 -0.7301 -0.4623
vn 1.0000 0.0000 0.0000
vn 0.9998 -0.0217 -0.0016
vn 0.1212 -0.1964 0.9730
vn 0.5025 -0.7303 -0.4628
vn 0.6432 -0.4211 0.6395
vn 0.3804 0.4682 -0.7975
vn 0.5883 0.6741 0.4467
vn 0.9559 -0.0157 0.2933
vn -0.6447 0.6774 0.3542
vn -0.5031 0.4122 -0.7596
vn -1.0000 -0.0000 -0.0000
vn -1.0000 0.0057 0.0004
vn -0.5883 0.6741 0.4467
vn 0.6452 0.6772 0.3537
vn 0.5024 0.4122 -0.7600
# 21 vertex normals

vt 0.0000 0.0000 0.0000
vt 1.0000 0.0000 0.0000
vt 1.0000 1.0000 0.0000
vt 0.0000 1.0000 0.0000
# 4 texture coords

o Plane005
g Plane005
usemtl wire_225087143
s 1
f 1/1/1 2/2/2 3/3/3 4/4/4 
s off
f 3/3/3 2/2/2 5/2/5 6/3/6 
s 1
f 1/1/7 4/4/4 3/3/7 
f 3/3/8 7/2/9 1/1/8 
s off
f 3/3/3 8/3/10 9/2/11 7/2/9 
s 1
f 10/3/12 11/2/13 12/1/14 13/4/4 
s off
f 14/2/15 11/2/13 10/3/12 15/3/16 
s 1
f 10/3/17 13/4/4 12/1/17 
f 12/1/18 16/2/19 10/3/18 
s off
f 17/2/20 18/3/21 10/3/12 16/2/19 
s 6
f 2/2/2 1/1/1 12/1/14 11/2/13 
s 4
f 5/2/5 2/2/2 11/2/13 14/2/15 
s 1
f 6/3/6 5/2/5 14/2/15 15/3/16 
s 2
f 3/3/3 6/3/6 15/3/16 10/3/12 
s 6
f 1/1/1 7/2/9 16/2/19 12/1/14 
s 2
f 8/3/10 3/3/3 10/3/12 18/3/21 
s 1
f 9/2/11 8/3/10 18/3/21 17/2/20 
s 2
f 7/2/9 9/2/11 17/2/20 16/2/19 
# 14 polygons - 4 triangles

