# 3ds Max Wavefront OBJ Exporter v0.97b - (c)2007 guruware
# File Created: 22.09.2020 19:48:21

mtllib EB02.mtl

#
# object Edificio_Base_02
#

v  -28.4853 0.0000 29.5757
v  -28.4853 0.0000 -29.5757
v  28.4853 0.0000 -29.5757
v  28.4853 0.0000 29.5757
v  -14.5666 150.6401 15.6570
v  14.5666 150.6401 15.6570
v  14.5666 150.6401 -15.6570
v  -14.5666 150.6401 -15.6570
v  28.4853 57.0508 29.5757
v  28.4853 79.4978 29.5757
v  -28.4853 79.4978 29.5757
v  -28.4853 57.0508 29.5757
v  41.4853 57.0508 -26.5757
v  41.4853 76.4978 -26.5757
v  41.4853 76.4978 26.5757
v  41.4853 57.0508 26.5757
v  -27.4853 57.0508 -42.5757
v  -27.4853 79.4978 -42.5757
v  27.4853 79.4978 -42.5757
v  27.4853 57.0508 -42.5757
v  -28.4853 79.4978 -29.5757
v  -28.4853 57.0508 -29.5757
v  28.4853 124.3919 29.5757
v  28.4853 136.5486 29.5757
v  -28.4853 136.5486 29.5757
v  -28.4853 124.3919 29.5757
v  28.4853 101.9449 29.5757
v  -28.4853 101.9449 29.5757
v  -28.4853 12.1567 29.5757
v  28.4853 12.1567 29.5757
v  -28.4853 34.6038 29.5757
v  28.4853 34.6038 29.5757
v  28.4853 124.3919 -29.5757
v  28.4853 136.5486 -29.5757
v  28.4853 101.9449 -29.5757
v  28.4853 79.4978 -29.5757
v  41.4853 12.1567 26.5757
v  41.4853 3.0000 26.5757
v  41.4853 3.0000 -26.5757
v  41.4853 12.1567 -26.5757
v  41.4853 34.6038 26.5757
v  41.4853 34.6038 -26.5757
v  -28.4853 124.3919 -29.5757
v  -28.4853 136.5486 -29.5757
v  -27.4853 101.9449 -42.5757
v  -27.4853 123.3919 -42.5757
v  27.4853 123.3919 -42.5757
v  27.4853 101.9449 -42.5757
v  27.4853 12.1567 -42.5757
v  27.4853 1.0000 -42.5757
v  -27.4853 1.0000 -42.5757
v  -27.4853 12.1567 -42.5757
v  27.4853 34.6038 -42.5757
v  -27.4853 34.6038 -42.5757
v  -28.4853 101.9449 -29.5757
v  -28.4853 12.1567 -29.5757
v  -28.4853 34.6038 -29.5757
v  -27.4853 1.0000 -29.5757
v  27.4853 1.0000 -29.5757
v  -27.4853 12.1567 -29.5757
v  -27.4853 34.6038 -29.5757
v  -27.4853 57.0508 -29.5757
v  -27.4853 79.4978 -29.5757
v  -27.4853 101.9449 -29.5757
v  -27.4853 123.3919 -29.5757
v  27.4853 123.3919 -29.5757
v  27.4853 101.9449 -29.5757
v  27.4853 79.4978 -29.5757
v  28.4853 57.0508 -29.5757
v  27.4853 57.0508 -29.5757
v  28.4853 34.6038 -29.5757
v  27.4853 34.6038 -29.5757
v  28.4853 12.1567 -29.5757
v  27.4853 12.1567 -29.5757
v  31.8894 136.5486 33.0274
v  -31.8894 136.5486 33.0274
v  31.8894 136.5486 -33.0274
v  -31.8894 136.5486 -33.0274
v  28.4853 3.0000 -26.5757
v  28.4853 3.0000 26.5757
v  28.4853 12.1567 -26.5757
v  28.4853 34.6038 -26.5757
v  28.4853 57.0508 -26.5757
v  28.4853 76.4978 -26.5757
v  28.4853 76.4978 26.5757
v  28.4853 57.0508 26.5757
v  28.4853 34.6038 26.5757
v  28.4853 12.1567 26.5757
v  34.6590 82.2491 -20.4019
v  34.6590 82.2491 20.4019
v  35.3116 82.2491 20.4019
v  35.3116 82.2491 -20.4019
v  29.5972 76.4978 25.4638
v  29.5972 76.4978 -25.4638
v  40.3735 76.4978 25.4638
v  40.3735 76.4978 -25.4638
v  30.7090 76.4978 24.3520
v  30.7090 76.4978 -24.3520
v  39.2616 76.4978 24.3520
v  39.2616 76.4978 -24.3520
# 100 vertices

vn -0.5774 -0.5774 0.5774
vn -0.5774 -0.5774 -0.5774
vn 0.5774 -0.5774 -0.5774
vn 0.5774 -0.5774 0.5774
vn -0.2602 0.9300 0.2595
vn 0.2602 0.9300 0.2595
vn 0.2602 0.9300 -0.2595
vn -0.2602 0.9300 -0.2595
vn 0.7071 0.0000 0.7071
vn -0.7071 0.0000 0.7071
vn 0.7071 0.0000 -0.7071
vn 0.5774 0.5774 -0.5774
vn 0.5774 0.5774 0.5774
vn -0.7071 0.0000 -0.7071
vn 0.3015 -0.9045 0.3015
vn -0.3015 -0.9045 0.3015
vn 0.3015 -0.9045 -0.3015
vn -0.3015 -0.9045 -0.3015
vn -0.5774 0.5774 -0.5774
vn -0.3015 -0.3015 -0.9045
vn 0.3015 -0.3015 -0.9045
vn -0.3015 0.3015 -0.9045
vn 0.3015 0.3015 -0.9045
vn 0.6940 -0.1898 0.6945
vn -0.6940 -0.1898 0.6945
vn 0.6940 -0.1898 -0.6945
vn -0.6940 -0.1898 -0.6945
vn 0.9045 -0.3015 -0.3015
vn 0.9045 -0.3015 0.3015
vn 0.9045 0.3015 -0.3015
vn 0.9045 0.3015 0.3015
vn -0.3719 0.8505 -0.3719
vn -0.3719 0.8505 0.3719
vn 0.3719 0.8505 0.3719
vn 0.3719 0.8505 -0.3719
vn 0.0000 1.0000 -0.0000
vn -0.1442 0.9790 0.1442
vn -0.1442 0.9790 -0.1442
vn 0.1442 0.9790 0.1442
vn 0.1442 0.9790 -0.1442
# 40 vertex normals

vt 0.7822 0.9995 0.0000
vt 0.7822 0.7822 0.0000
vt 0.9915 0.7822 0.0000
vt 0.9915 0.9995 0.0000
vt 0.5016 0.5017 0.0000
vt 0.5016 0.6133 0.0000
vt 0.3816 0.6133 0.0000
vt 0.3816 0.5017 0.0000
vt 0.5192 0.4318 0.0000
vt 0.4367 0.4318 0.0000
vt 0.4367 0.2225 0.0000
vt 0.5192 0.2225 0.0000
vt 0.9913 0.7079 0.0000
vt 0.9913 0.7793 0.0000
vt 0.7961 0.7793 0.0000
vt 0.7961 0.7079 0.0000
vt 0.2024 0.7152 0.0000
vt 0.2024 0.7976 0.0000
vt 0.0005 0.7976 0.0000
vt 0.0005 0.7152 0.0000
vt 0.2178 0.2147 0.0000
vt 0.2178 0.2971 0.0000
vt 0.0005 0.2971 0.0000
vt 0.0005 0.2147 0.0000
vt 0.2718 0.4318 0.0000
vt 0.2272 0.4318 0.0000
vt 0.2272 0.2225 0.0000
vt 0.2718 0.2225 0.0000
vt 0.3543 0.4318 0.0000
vt 0.3543 0.2225 0.0000
vt 0.6840 0.2225 0.0000
vt 0.7287 0.2225 0.0000
vt 0.7287 0.4318 0.0000
vt 0.6840 0.4318 0.0000
vt 0.6016 0.2225 0.0000
vt 0.6016 0.4318 0.0000
vt 0.2672 0.2178 0.0000
vt 0.2225 0.2178 0.0000
vt 0.2225 0.0005 0.0000
vt 0.2672 0.0005 0.0000
vt 0.3496 0.2178 0.0000
vt 0.3496 0.0005 0.0000
vt 0.4321 0.2178 0.0000
vt 0.4321 0.0005 0.0000
vt 0.7961 0.5430 0.0000
vt 0.7961 0.5093 0.0000
vt 0.9913 0.5093 0.0000
vt 0.9913 0.5430 0.0000
vt 0.7961 0.6254 0.0000
vt 0.9913 0.6254 0.0000
vt 0.9915 0.4620 0.0000
vt 0.9915 0.5067 0.0000
vt 0.7822 0.5067 0.0000
vt 0.7822 0.4620 0.0000
vt 0.2024 0.8801 0.0000
vt 0.2024 0.9589 0.0000
vt 0.0005 0.9589 0.0000
vt 0.0005 0.8801 0.0000
vt 0.0005 0.5503 0.0000
vt 0.0005 0.5093 0.0000
vt 0.2024 0.5093 0.0000
vt 0.2024 0.5503 0.0000
vt 0.0005 0.6327 0.0000
vt 0.2024 0.6327 0.0000
vt 0.2178 0.4620 0.0000
vt 0.2178 0.5067 0.0000
vt 0.0005 0.5067 0.0000
vt 0.0005 0.4620 0.0000
vt 0.2178 0.3796 0.0000
vt 0.0005 0.3796 0.0000
vt 0.0005 0.0498 0.0000
vt 0.0005 0.0051 0.0000
vt 0.2178 0.0051 0.0000
vt 0.2178 0.0498 0.0000
vt 0.0005 0.1322 0.0000
vt 0.2178 0.1322 0.0000
vt 0.7822 0.0051 0.0000
vt 0.9915 0.0051 0.0000
vt 0.9878 0.0088 0.0000
vt 0.7859 0.0088 0.0000
vt 0.9915 0.0498 0.0000
vt 0.9878 0.0498 0.0000
vt 0.9915 0.1322 0.0000
vt 0.9878 0.1322 0.0000
vt 0.9915 0.2147 0.0000
vt 0.9878 0.2147 0.0000
vt 0.9915 0.2971 0.0000
vt 0.9878 0.2971 0.0000
vt 0.9915 0.3796 0.0000
vt 0.9878 0.3796 0.0000
vt 0.9878 0.4583 0.0000
vt 0.7859 0.4583 0.0000
vt 0.7822 0.3796 0.0000
vt 0.7859 0.3796 0.0000
vt 0.7822 0.2971 0.0000
vt 0.7859 0.2971 0.0000
vt 0.7822 0.2147 0.0000
vt 0.7859 0.2147 0.0000
vt 0.7822 0.1322 0.0000
vt 0.7859 0.1322 0.0000
vt 0.7822 0.0498 0.0000
vt 0.7859 0.0498 0.0000
vt 0.5695 0.4446 0.0000
vt 0.7714 0.4446 0.0000
vt 0.7714 0.4923 0.0000
vt 0.5695 0.4923 0.0000
vt 0.3027 0.5186 0.0000
vt 0.3027 0.5596 0.0000
vt 0.2549 0.5596 0.0000
vt 0.2549 0.5186 0.0000
vt 0.3027 0.6420 0.0000
vt 0.2549 0.6420 0.0000
vt 0.3027 0.7244 0.0000
vt 0.2549 0.7244 0.0000
vt 0.3027 0.8069 0.0000
vt 0.2549 0.8069 0.0000
vt 0.3027 0.8893 0.0000
vt 0.2549 0.8893 0.0000
vt 0.3027 0.9681 0.0000
vt 0.2549 0.9681 0.0000
vt 0.6187 0.7328 0.0000
vt 0.4168 0.7328 0.0000
vt 0.4168 0.6851 0.0000
vt 0.6187 0.6851 0.0000
vt 0.2040 0.9681 0.0000
vt 0.2040 0.8893 0.0000
vt 0.2518 0.8893 0.0000
vt 0.2518 0.9681 0.0000
vt 0.2040 0.8069 0.0000
vt 0.2518 0.8069 0.0000
vt 0.2040 0.7244 0.0000
vt 0.2518 0.7244 0.0000
vt 0.2040 0.6420 0.0000
vt 0.2518 0.6420 0.0000
vt 0.2040 0.5596 0.0000
vt 0.2518 0.5596 0.0000
vt 0.2040 0.5186 0.0000
vt 0.2518 0.5186 0.0000
vt 0.4202 0.7485 0.0000
vt 0.4202 0.9577 0.0000
vt 0.4076 0.9702 0.0000
vt 0.4076 0.7360 0.0000
vt 0.6375 0.9577 0.0000
vt 0.6502 0.9702 0.0000
vt 0.6375 0.7485 0.0000
vt 0.6502 0.7360 0.0000
vt 0.5681 0.4353 0.0000
vt 0.5681 0.6797 0.0000
vt 0.3150 0.6797 0.0000
vt 0.3150 0.4353 0.0000
vt 0.7241 0.0005 0.0000
vt 0.7241 0.2178 0.0000
vt 0.7131 0.2067 0.0000
vt 0.7131 0.0115 0.0000
vt 0.6794 0.2178 0.0000
vt 0.6794 0.2067 0.0000
vt 0.5970 0.2178 0.0000
vt 0.5970 0.2067 0.0000
vt 0.5145 0.2178 0.0000
vt 0.5145 0.2067 0.0000
vt 0.4431 0.2067 0.0000
vt 0.4431 0.0115 0.0000
vt 0.5145 0.0005 0.0000
vt 0.5145 0.0115 0.0000
vt 0.5970 0.0005 0.0000
vt 0.5970 0.0115 0.0000
vt 0.6794 0.0005 0.0000
vt 0.6794 0.0115 0.0000
vt 0.5695 0.5648 0.0000
vt 0.7647 0.5648 0.0000
vt 0.7647 0.6126 0.0000
vt 0.5695 0.6126 0.0000
vt 0.4044 0.6990 0.0000
vt 0.4044 0.7326 0.0000
vt 0.3567 0.7326 0.0000
vt 0.3567 0.6990 0.0000
vt 0.4044 0.8151 0.0000
vt 0.3567 0.8151 0.0000
vt 0.4044 0.8975 0.0000
vt 0.3567 0.8975 0.0000
vt 0.4044 0.9689 0.0000
vt 0.3567 0.9689 0.0000
vt 0.7730 0.1966 0.0000
vt 0.7730 0.0468 0.0000
vt 0.7754 0.0468 0.0000
vt 0.7754 0.1966 0.0000
vt 0.3058 0.9689 0.0000
vt 0.3058 0.8975 0.0000
vt 0.3535 0.8975 0.0000
vt 0.3535 0.9689 0.0000
vt 0.3058 0.8151 0.0000
vt 0.3535 0.8151 0.0000
vt 0.3058 0.7326 0.0000
vt 0.3535 0.7326 0.0000
vt 0.3058 0.6990 0.0000
vt 0.3535 0.6990 0.0000
vt 0.5695 0.5047 0.0000
vt 0.7647 0.5047 0.0000
vt 0.7606 0.5088 0.0000
vt 0.5735 0.5088 0.0000
vt 0.7647 0.5524 0.0000
vt 0.7606 0.5484 0.0000
vt 0.5695 0.5524 0.0000
vt 0.5735 0.5484 0.0000
vt 0.7565 0.5129 0.0000
vt 0.5776 0.5129 0.0000
vt 0.7565 0.5443 0.0000
vt 0.5776 0.5443 0.0000
vt 0.7483 0.0468 0.0000
vt 0.7483 0.2292 0.0000
vt 0.7267 0.2144 0.0000
vt 0.7267 0.0616 0.0000
vt 0.7610 0.0235 0.0000
vt 0.7267 0.0235 0.0000
vt 0.7425 0.0005 0.0000
vt 0.7452 0.0005 0.0000
vt 0.7714 0.0468 0.0000
vt 0.7714 0.2292 0.0000
vt 0.7499 0.2144 0.0000
vt 0.7499 0.0616 0.0000
vt 0.6037 0.6480 0.0000
vt 0.5695 0.6480 0.0000
vt 0.5853 0.6250 0.0000
vt 0.5879 0.6250 0.0000
# 224 texture coords

o Edificio_Base_02
g Edificio_Base_02
usemtl wire_008008136
s 2
f 1/1/1 2/2/2 3/3/3 4/4/4 
s 4
f 5/5/5 6/6/6 7/7/7 8/8/8 
s 8
f 9/9/9 10/10/9 11/11/10 12/12/10 
s 16
f 13/13/11 14/14/12 15/15/13 16/16/9 
s 32
f 17/17/14 18/18/14 19/19/11 20/20/11 
s 64
f 12/21/10 11/22/10 21/23/14 22/24/14 
s 8
f 23/25/9 24/26/15 25/27/16 26/28/10 
f 27/29/9 23/25/9 26/28/10 28/30/10 
f 10/10/9 27/29/9 28/30/10 11/11/10 
f 29/31/10 1/32/1 4/33/4 30/34/9 
f 31/35/10 29/31/10 30/34/9 32/36/9 
f 12/12/10 31/35/10 32/36/9 9/9/9 
s 16
f 33/37/11 34/38/17 24/39/15 23/40/9 
f 35/41/11 33/37/11 23/40/9 27/42/9 
f 36/43/11 35/41/11 27/42/9 10/44/9 
f 37/45/9 38/46/4 39/47/3 40/48/11 
f 41/49/9 37/45/9 40/48/11 42/50/11 
f 16/16/9 41/49/9 42/50/11 13/13/11 
s 32
f 43/51/14 44/52/18 34/53/17 33/54/11 
f 45/55/14 46/56/19 47/57/12 48/58/11 
f 18/18/14 45/55/14 48/58/11 19/19/11 
f 49/59/11 50/60/3 51/61/2 52/62/14 
f 53/63/11 49/59/11 52/62/14 54/64/14 
f 20/20/11 53/63/11 54/64/14 17/17/14 
s 64
f 26/65/10 25/66/16 44/67/18 43/68/14 
f 28/69/10 26/65/10 43/68/14 55/70/14 
f 11/22/10 28/69/10 55/70/14 21/23/14 
f 56/71/14 2/72/2 1/73/1 29/74/10 
f 57/75/14 56/71/14 29/74/10 31/76/10 
f 22/24/14 57/75/14 31/76/10 12/21/10 
s off
f 3/77/3 2/78/2 58/79/20 59/80/21 
f 2/78/2 56/81/14 60/82/14 58/79/20 
f 56/81/14 57/83/14 61/84/14 60/82/14 
f 57/83/14 22/85/14 62/86/14 61/84/14 
f 22/85/14 21/87/14 63/88/14 62/86/14 
f 21/87/14 55/89/14 64/90/14 63/88/14 
f 55/89/14 43/51/14 65/91/22 64/90/14 
f 43/51/14 33/54/11 66/92/23 65/91/22 
f 33/54/11 35/93/11 67/94/11 66/92/23 
f 35/93/11 36/95/11 68/96/11 67/94/11 
f 36/95/11 69/97/11 70/98/11 68/96/11 
f 69/97/11 71/99/11 72/100/11 70/98/11 
f 71/99/11 73/101/11 74/102/11 72/100/11 
f 73/101/11 3/77/3 59/80/21 74/102/11 
f 59/103/21 58/104/20 51/105/2 50/106/3 
f 58/107/20 60/108/14 52/109/14 51/110/2 
f 60/108/14 61/111/14 54/112/14 52/109/14 
f 61/111/14 62/113/14 17/114/14 54/112/14 
f 62/113/14 63/115/14 18/116/14 17/114/14 
f 63/115/14 64/117/14 45/118/14 18/116/14 
f 64/117/14 65/119/22 46/120/19 45/118/14 
f 65/121/22 66/122/23 47/123/12 46/124/19 
f 66/125/23 67/126/11 48/127/11 47/128/12 
f 67/126/11 68/129/11 19/130/11 48/127/11 
f 68/129/11 70/131/11 20/132/11 19/130/11 
f 70/131/11 72/133/11 53/134/11 20/132/11 
f 72/133/11 74/135/11 49/136/11 53/134/11 
f 74/135/11 59/137/21 50/138/3 49/136/11 
f 25/139/16 24/140/15 75/141/24 76/142/25 
f 24/140/15 34/143/17 77/144/26 75/141/24 
f 34/143/17 44/145/18 78/146/27 77/144/26 
f 44/145/18 25/139/16 76/142/25 78/146/27 
f 76/147/25 75/148/24 6/6/6 5/5/5 
f 75/148/24 77/149/26 7/7/7 6/6/6 
f 77/149/26 78/150/27 8/8/8 7/7/7 
f 78/150/27 76/147/25 5/5/5 8/8/8 
f 4/151/4 3/152/3 79/153/28 80/154/29 
f 3/152/3 73/155/11 81/156/11 79/153/28 
f 73/155/11 71/157/11 82/158/11 81/156/11 
f 71/157/11 69/159/11 83/160/11 82/158/11 
f 69/159/11 36/43/11 84/161/30 83/160/11 
f 36/43/11 10/44/9 85/162/31 84/161/30 
f 10/44/9 9/163/9 86/164/9 85/162/31 
f 9/163/9 32/165/9 87/166/9 86/164/9 
f 32/165/9 30/167/9 88/168/9 87/166/9 
f 30/167/9 4/151/4 80/154/29 88/168/9 
f 80/169/29 79/170/28 39/171/3 38/172/4 
f 79/173/28 81/174/11 40/175/11 39/176/3 
f 81/174/11 82/177/11 42/178/11 40/175/11 
f 82/177/11 83/179/11 13/180/11 42/178/11 
f 83/179/11 84/181/30 14/182/12 13/180/11 
f 89/183/32 90/184/33 91/185/34 92/186/35 
f 85/187/31 86/188/9 16/189/9 15/190/13 
f 86/188/9 87/191/9 41/192/9 16/189/9 
f 87/191/9 88/193/9 37/194/9 41/192/9 
f 88/193/9 80/195/29 38/196/4 37/194/9 
f 84/197/30 85/198/31 93/199/36 94/200/36 
f 85/198/31 15/201/13 95/202/36 93/199/36 
f 15/201/13 14/203/12 96/204/36 95/202/36 
f 14/203/12 84/197/30 94/200/36 96/204/36 
f 94/200/36 93/199/36 97/205/37 98/206/38 
f 93/199/36 95/202/36 99/207/39 97/205/37 
f 95/202/36 96/204/36 100/208/40 99/207/39 
f 96/204/36 94/200/36 98/206/38 100/208/40 
f 98/209/38 97/210/37 90/211/33 89/212/32 
f 97/213/37 99/214/39 91/215/34 90/216/33 
f 99/217/39 100/218/40 92/219/35 91/220/34 
f 100/221/40 98/222/38 89/223/32 92/224/35 
# 98 polygons

