# 3ds Max Wavefront OBJ Exporter v0.97b - (c)2007 guruware
# File Created: 22.09.2020 00:29:45

mtllib mesita.mtl

#
# object Mesita
#

v  42.1166 7.3665 23.6608
v  -42.1166 7.3665 23.6608
v  -42.1166 7.3665 -23.6608
v  42.1166 7.3665 -23.6608
v  42.1166 9.1456 -23.6608
v  -42.1166 9.1456 -23.6608
v  -42.1166 9.1456 23.6608
v  42.1166 9.1456 23.6608
v  43.9286 7.3665 23.6608
v  43.9286 7.3665 -23.6608
v  43.9286 9.1456 -23.6608
v  43.9286 9.1456 23.6608
v  -43.9286 7.3665 -23.6608
v  -43.9286 7.3665 23.6608
v  -43.9286 9.1456 23.6608
v  -43.9286 9.1456 -23.6608
v  -42.1166 -9.1456 23.6608
v  -43.9286 -9.1456 23.6608
v  -43.9286 -9.1456 -23.6608
v  -42.1166 -9.1456 -23.6608
v  42.1166 -9.1456 -23.6608
v  43.9286 -9.1456 -23.6608
v  43.9286 -9.1456 23.6608
v  42.1166 -9.1456 23.6608
# 24 vertices

vn -0.3015 -0.3015 0.9045
vn 0.3015 -0.3015 0.9045
vn 0.3015 -0.3015 -0.9045
vn -0.3015 -0.3015 -0.9045
vn -0.0000 0.7071 -0.7071
vn 0.0000 0.7071 0.7071
vn 0.7071 0.0000 0.7071
vn 0.7071 0.0000 -0.7071
vn 0.5774 0.5774 -0.5774
vn 0.5774 0.5774 0.5774
vn -0.7071 0.0000 -0.7071
vn -0.7071 0.0000 0.7071
vn -0.5774 0.5774 0.5774
vn -0.5774 0.5774 -0.5774
vn 0.5774 -0.5774 0.5774
vn -0.5774 -0.5774 0.5774
vn -0.5774 -0.5774 -0.5774
vn 0.5774 -0.5774 -0.5774
# 18 vertex normals

vt 0.0285 0.0446 0.0000
vt 0.5496 0.0446 0.0000
vt 0.5496 0.3374 0.0000
vt 0.0285 0.3374 0.0000
vt 0.1964 0.0440 0.0000
vt 0.4626 0.0440 0.0000
vt 0.4626 0.3367 0.0000
vt 0.1964 0.3367 0.0000
vt 0.1236 0.8466 0.0000
vt 0.1236 0.4529 0.0000
vt 0.1348 0.4529 0.0000
vt 0.1348 0.8466 0.0000
vt 0.8579 0.9018 0.0000
vt 0.8601 0.3807 0.0000
vt 0.8711 0.3807 0.0000
vt 0.8689 0.9018 0.0000
vt 0.3537 0.8465 0.0000
vt 0.3537 0.4488 0.0000
vt 0.3687 0.4488 0.0000
vt 0.3687 0.8465 0.0000
vt 0.5942 0.3932 0.0000
vt 0.5859 0.9142 0.0000
vt 0.5749 0.9140 0.0000
vt 0.5832 0.3930 0.0000
vt 0.4801 0.4597 0.0000
vt 0.4950 0.4597 0.0000
vt 0.4950 0.8505 0.0000
vt 0.4801 0.8505 0.0000
vt 0.2489 0.4497 0.0000
vt 0.2642 0.4497 0.0000
vt 0.2642 0.8481 0.0000
vt 0.2489 0.8481 0.0000
vt 0.4738 0.0440 0.0000
vt 0.4738 0.3367 0.0000
vt 0.0152 0.3367 0.0000
vt 0.0152 0.0440 0.0000
vt 0.8601 0.3695 0.0000
vt 0.8712 0.3695 0.0000
vt 0.8688 0.9130 0.0000
vt 0.8578 0.9130 0.0000
vt 0.5858 0.9254 0.0000
vt 0.5747 0.9253 0.0000
vt 0.5834 0.3818 0.0000
vt 0.5944 0.3820 0.0000
vt 0.2837 0.8465 0.0000
vt 0.2837 0.4488 0.0000
vt 0.7579 0.3803 0.0000
vt 0.7580 0.3690 0.0000
vt 0.3842 0.8505 0.0000
vt 0.3842 0.4597 0.0000
vt 0.6966 0.3836 0.0000
vt 0.6964 0.3948 0.0000
vt 0.6881 0.9158 0.0000
vt 0.6879 0.9270 0.0000
vt 0.1787 0.8481 0.0000
vt 0.1787 0.4497 0.0000
vt 0.7557 0.9125 0.0000
vt 0.7557 0.9013 0.0000
vt 0.0563 0.8466 0.0000
vt 0.0563 0.4529 0.0000
# 60 texture coords

o Mesita
g Mesita
usemtl wire_088088225
s 2
f 1/1/1 2/2/2 3/3/3 4/4/4 
s 4
f 5/5/5 6/6/5 7/7/6 8/8/6 
s 8
f 9/9/7 10/10/8 11/11/9 12/12/10 
s 16
f 4/13/4 3/14/3 6/15/5 5/16/5 
s 32
f 13/17/11 14/18/12 15/19/13 16/20/14 
s 64
f 2/21/2 1/22/1 8/23/6 7/24/6 
s 2
f 17/25/15 18/26/16 19/27/17 20/28/18 
f 21/29/17 22/30/18 23/31/15 24/32/16 
s 4
f 6/6/5 16/33/14 15/34/13 7/7/6 
f 8/8/6 12/35/10 11/36/9 5/5/5 
s 16
f 3/14/3 13/37/11 16/38/14 6/15/5 
f 5/16/5 11/39/9 10/40/8 4/13/4 
s 64
f 1/22/1 9/41/7 12/42/10 8/23/6 
f 7/24/6 15/43/13 14/44/12 2/21/2 
s off
f 14/18/12 13/17/11 19/45/17 18/46/16 
f 13/37/11 3/14/3 20/47/18 19/48/17 
f 3/49/3 2/50/2 17/25/15 20/28/18 
f 2/21/2 14/44/12 18/51/16 17/52/15 
f 9/41/7 1/22/1 24/53/16 23/54/15 
f 1/55/1 4/56/4 21/29/17 24/32/16 
f 4/13/4 10/40/8 22/57/18 21/58/17 
f 10/10/8 9/9/7 23/59/15 22/60/18 
# 22 polygons

