# 3ds Max Wavefront OBJ Exporter v0.97b - (c)2007 guruware
# File Created: 22.09.2020 19:48:10

mtllib EB01.mtl

#
# object Edificio_Base_01
#

v  -19.1016 0.0000 19.9750
v  -19.1016 0.0000 -19.9750
v  19.1016 0.0000 -19.9750
v  19.1016 0.0000 19.9750
v  -5.1016 107.1768 5.9750
v  5.1016 107.1768 5.9750
v  5.1016 107.1768 -5.9750
v  -5.1016 107.1768 -5.9750
v  23.6905 1.2369 18.7381
v  23.6905 1.2369 -18.7381
v  23.6905 22.4168 -18.7381
v  23.6905 22.4168 18.7381
v  17.8647 1.2369 -27.3473
v  -17.8647 1.2369 -27.3473
v  -17.8647 22.4253 -27.3473
v  17.8647 22.4168 -27.3473
v  -19.1016 22.4253 19.9750
v  -19.1016 22.4253 -19.9750
v  19.1016 52.0017 19.9750
v  19.1016 69.5923 19.9750
v  -19.1016 69.5979 19.9750
v  -19.1016 52.0102 19.9750
v  23.6905 52.0017 -18.7381
v  23.6905 69.5923 -18.7381
v  23.6905 69.5923 18.7381
v  23.6905 52.0017 18.7381
v  -19.1016 69.5979 -19.9750
v  -19.1016 52.0102 -19.9750
v  -17.8647 52.0102 -27.3473
v  17.8647 52.0017 -27.3473
v  19.1016 103.4105 19.9750
v  -19.1016 103.4105 19.9750
v  23.6905 102.1736 -18.7381
v  23.6905 102.1736 18.7381
v  -19.1016 103.4105 -19.9750
v  19.1016 103.4105 -19.9750
v  19.1016 69.5923 -19.9750
v  19.1016 1.2369 -18.7381
v  19.1016 1.2369 18.7381
v  19.1016 22.4168 -19.9750
v  19.1016 22.4168 -18.7381
v  19.1016 52.0017 -19.9750
v  19.1016 52.0017 -18.7381
v  19.1016 69.5923 -18.7381
v  19.1016 102.1736 -18.7381
v  19.1016 102.1736 18.7381
v  19.1016 69.5923 18.7381
v  19.1016 52.0017 18.7381
v  19.1016 22.4168 19.9750
v  19.1016 22.4168 18.7381
v  -17.8647 68.3609 -27.3473
v  17.8647 68.3556 -27.3473
v  -17.8647 1.2369 -19.9750
v  17.8647 1.2369 -19.9750
v  -17.8647 22.4253 -19.9750
v  -17.8647 52.0102 -19.9750
v  -17.8647 68.3609 -19.9750
v  17.8647 68.3556 -19.9750
v  17.8647 52.0017 -19.9750
v  17.8647 22.4168 -19.9750
v  17.8647 22.4168 24.4870
v  17.8647 50.7651 24.4870
v  -17.8647 50.7731 24.4870
v  -17.8647 22.4253 24.4870
v  -17.8647 1.2369 24.4870
v  17.8647 1.2369 24.4870
v  17.8647 1.2369 19.9750
v  -17.8647 1.2369 19.9750
v  17.8647 22.4168 19.9750
v  17.8647 50.7651 19.9750
v  -17.8647 50.7731 19.9750
v  -17.8647 22.4253 19.9750
v  11.1016 103.4105 11.9750
v  -11.1016 103.4105 11.9750
v  11.1016 103.4105 -11.9750
v  -11.1016 103.4105 -11.9750
v  11.1016 104.9843 11.9750
v  -11.1016 104.9843 11.9750
v  11.1016 104.9843 -11.9750
v  -11.1016 104.9843 -11.9750
v  5.1016 104.9843 5.9750
v  -5.1016 104.9843 5.9750
v  5.1016 104.9843 -5.9750
v  -5.1016 104.9843 -5.9750
# 84 vertices

vn -0.5774 -0.5774 0.5774
vn -0.5774 -0.5774 -0.5774
vn 0.5774 -0.5774 -0.5774
vn 0.5774 -0.5774 0.5774
vn -0.5774 0.5774 0.5774
vn 0.5774 0.5774 0.5774
vn 0.5774 0.5774 -0.5774
vn -0.5774 0.5774 -0.5774
vn 0.7071 0.0000 -0.7071
vn 0.7071 0.0000 0.7071
vn -0.7071 -0.0000 -0.7071
vn -0.7071 -0.0000 0.7071
vn 0.7071 -0.0000 0.7071
vn -0.7071 0.0000 0.7071
vn -0.7071 0.0000 -0.7071
vn 0.7071 -0.0000 -0.7071
vn 0.9045 -0.3015 -0.3015
vn 0.9045 -0.3015 0.3015
vn 0.9045 0.3015 -0.3015
vn 0.9045 0.3015 0.3015
vn -0.5773 0.5774 -0.5774
vn 0.5774 0.5773 -0.5773
vn -0.3015 -0.3015 -0.9045
vn 0.3015 -0.3015 -0.9045
vn -0.3015 0.3015 -0.9046
vn 0.3016 0.3015 -0.9045
vn 0.5774 0.5773 0.5773
vn -0.5773 0.5774 0.5774
vn 0.3015 -0.3015 0.9045
vn -0.3015 -0.3015 0.9045
vn 0.3016 0.3015 0.9045
vn -0.3014 0.3015 0.9046
vn 0.3015 0.9045 0.3015
vn -0.3015 0.9045 0.3015
vn 0.3015 0.9045 -0.3015
vn -0.3015 0.9045 -0.3015
# 36 vertex normals

vt 0.7686 0.9995 0.0000
vt 0.7686 0.7831 0.0000
vt 0.9755 0.7831 0.0000
vt 0.9755 0.9995 0.0000
vt 0.7177 0.6250 0.0000
vt 0.6625 0.6250 0.0000
vt 0.6625 0.5603 0.0000
vt 0.7177 0.5603 0.0000
vt 0.5474 0.5705 0.0000
vt 0.5474 0.7736 0.0000
vt 0.4326 0.7736 0.0000
vt 0.4326 0.5705 0.0000
vt 0.0334 0.9887 0.0000
vt 0.0334 0.7951 0.0000
vt 0.1482 0.7951 0.0000
vt 0.1481 0.9887 0.0000
vt 0.0005 0.0053 0.0000
vt 0.2169 0.0053 0.0000
vt 0.2169 0.1268 0.0000
vt 0.0005 0.1268 0.0000
vt 0.5061 0.4200 0.0000
vt 0.4108 0.4200 0.0000
vt 0.4107 0.2130 0.0000
vt 0.5060 0.2130 0.0000
vt 0.2723 0.7736 0.0000
vt 0.1770 0.7736 0.0000
vt 0.1770 0.5705 0.0000
vt 0.2723 0.5705 0.0000
vt 0.2169 0.2871 0.0000
vt 0.2169 0.3824 0.0000
vt 0.0005 0.3824 0.0000
vt 0.0005 0.2871 0.0000
vt 0.3085 0.7951 0.0000
vt 0.3084 0.9887 0.0000
vt 0.2275 0.4200 0.0000
vt 0.2275 0.2130 0.0000
vt 0.0005 0.7736 0.0000
vt 0.0005 0.5705 0.0000
vt 0.4059 0.2075 0.0000
vt 0.2227 0.2075 0.0000
vt 0.2227 0.0005 0.0000
vt 0.4059 0.0005 0.0000
vt 0.2169 0.5656 0.0000
vt 0.0005 0.5656 0.0000
vt 0.0053 0.9995 0.0000
vt 0.0053 0.7831 0.0000
vt 0.0120 0.7898 0.0000
vt 0.0120 0.9928 0.0000
vt 0.1268 0.7831 0.0000
vt 0.1268 0.7898 0.0000
vt 0.2871 0.7831 0.0000
vt 0.2871 0.7898 0.0000
vt 0.3824 0.7831 0.0000
vt 0.3824 0.7898 0.0000
vt 0.5656 0.7831 0.0000
vt 0.5589 0.7898 0.0000
vt 0.5656 0.9995 0.0000
vt 0.5589 0.9928 0.0000
vt 0.3824 0.9995 0.0000
vt 0.3824 0.9928 0.0000
vt 0.2871 0.9995 0.0000
vt 0.2871 0.9928 0.0000
vt 0.1268 0.9995 0.0000
vt 0.1268 0.9928 0.0000
vt 0.2275 0.5415 0.0000
vt 0.4306 0.5415 0.0000
vt 0.4306 0.5664 0.0000
vt 0.2275 0.5664 0.0000
vt 0.7744 0.4794 0.0000
vt 0.6597 0.4794 0.0000
vt 0.6597 0.4546 0.0000
vt 0.7744 0.4546 0.0000
vt 0.4994 0.4794 0.0000
vt 0.4994 0.4546 0.0000
vt 0.4041 0.4794 0.0000
vt 0.4041 0.4546 0.0000
vt 0.2275 0.4794 0.0000
vt 0.2275 0.4546 0.0000
vt 0.8797 0.2035 0.0000
vt 0.8797 0.0005 0.0000
vt 0.9045 0.0005 0.0000
vt 0.9045 0.2035 0.0000
vt 0.2275 0.4256 0.0000
vt 0.4041 0.4256 0.0000
vt 0.4041 0.4505 0.0000
vt 0.2275 0.4505 0.0000
vt 0.4994 0.4256 0.0000
vt 0.4994 0.4505 0.0000
vt 0.6597 0.4256 0.0000
vt 0.6597 0.4505 0.0000
vt 0.7744 0.4256 0.0000
vt 0.7744 0.4505 0.0000
vt 0.3970 0.7951 0.0000
vt 0.3970 0.9887 0.0000
vt 0.7830 0.0005 0.0000
vt 0.7830 0.2075 0.0000
vt 0.7763 0.2008 0.0000
vt 0.7763 0.0072 0.0000
vt 0.6615 0.2075 0.0000
vt 0.6615 0.2008 0.0000
vt 0.5012 0.2075 0.0000
vt 0.5012 0.2008 0.0000
vt 0.4126 0.2008 0.0000
vt 0.4126 0.0072 0.0000
vt 0.5012 0.0005 0.0000
vt 0.5012 0.0072 0.0000
vt 0.6615 0.0005 0.0000
vt 0.6615 0.0072 0.0000
vt 0.9086 0.1941 0.0000
vt 0.9086 0.0005 0.0000
vt 0.9486 0.0005 0.0000
vt 0.9486 0.1941 0.0000
vt 0.8327 0.0005 0.0000
vt 0.8327 0.1153 0.0000
vt 0.7927 0.1153 0.0000
vt 0.7927 0.0005 0.0000
vt 0.8327 0.2756 0.0000
vt 0.7927 0.2756 0.0000
vt 0.8327 0.3642 0.0000
vt 0.7927 0.3642 0.0000
vt 0.3975 0.9887 0.0000
vt 0.3975 0.7951 0.0000
vt 0.4375 0.7951 0.0000
vt 0.4375 0.9887 0.0000
vt 0.8362 0.3641 0.0000
vt 0.8362 0.2755 0.0000
vt 0.8761 0.2755 0.0000
vt 0.8761 0.3641 0.0000
vt 0.8362 0.1153 0.0000
vt 0.8761 0.1153 0.0000
vt 0.8362 0.0005 0.0000
vt 0.8761 0.0005 0.0000
vt 0.5705 0.8835 0.0000
vt 0.5705 0.7300 0.0000
vt 0.7641 0.7299 0.0000
vt 0.7641 0.8835 0.0000
vt 0.7641 0.9983 0.0000
vt 0.5705 0.9983 0.0000
vt 0.7878 0.2130 0.0000
vt 0.7878 0.4200 0.0000
vt 0.7811 0.4133 0.0000
vt 0.7811 0.2197 0.0000
vt 0.6664 0.4200 0.0000
vt 0.6664 0.4133 0.0000
vt 0.5128 0.4133 0.0000
vt 0.5127 0.2197 0.0000
vt 0.6663 0.2130 0.0000
vt 0.6663 0.2197 0.0000
vt 0.4380 0.9887 0.0000
vt 0.4380 0.7951 0.0000
vt 0.4624 0.7951 0.0000
vt 0.4624 0.9887 0.0000
vt 0.4959 0.5370 0.0000
vt 0.3811 0.5370 0.0000
vt 0.3811 0.5125 0.0000
vt 0.4959 0.5125 0.0000
vt 0.2275 0.5370 0.0000
vt 0.2275 0.5125 0.0000
vt 0.4873 0.7951 0.0000
vt 0.4873 0.9887 0.0000
vt 0.4629 0.9887 0.0000
vt 0.4629 0.7951 0.0000
vt 0.2275 0.4836 0.0000
vt 0.3811 0.4836 0.0000
vt 0.3811 0.5080 0.0000
vt 0.2275 0.5080 0.0000
vt 0.4959 0.4836 0.0000
vt 0.4959 0.5080 0.0000
vt 0.7676 0.5125 0.0000
vt 0.7676 0.7195 0.0000
vt 0.7243 0.6762 0.0000
vt 0.7243 0.5559 0.0000
vt 0.5512 0.7195 0.0000
vt 0.5945 0.6762 0.0000
vt 0.5512 0.5125 0.0000
vt 0.5945 0.5559 0.0000
vt 0.5867 0.0997 0.0000
vt 0.4664 0.0997 0.0000
vt 0.4664 0.0911 0.0000
vt 0.5867 0.0911 0.0000
vt 0.5867 0.0906 0.0000
vt 0.4570 0.0906 0.0000
vt 0.4570 0.0821 0.0000
vt 0.5867 0.0821 0.0000
vt 0.5867 0.1087 0.0000
vt 0.4664 0.1087 0.0000
vt 0.4664 0.1001 0.0000
vt 0.5867 0.1001 0.0000
vt 0.5867 0.0816 0.0000
vt 0.4570 0.0816 0.0000
vt 0.4570 0.0731 0.0000
vt 0.5867 0.0731 0.0000
vt 0.7734 0.6430 0.0000
vt 0.8937 0.6430 0.0000
vt 0.8612 0.6755 0.0000
vt 0.8059 0.6755 0.0000
vt 0.8937 0.7727 0.0000
vt 0.8612 0.7402 0.0000
vt 0.7734 0.7727 0.0000
vt 0.8059 0.7402 0.0000
vt 0.8203 0.6807 0.0000
vt 0.8203 0.7360 0.0000
vt 0.8084 0.7360 0.0000
vt 0.8084 0.6807 0.0000
vt 0.6496 0.5603 0.0000
vt 0.6496 0.6250 0.0000
vt 0.6377 0.6250 0.0000
vt 0.6377 0.5603 0.0000
vt 0.8327 0.6807 0.0000
vt 0.8327 0.7360 0.0000
vt 0.8208 0.7360 0.0000
vt 0.8208 0.6807 0.0000
vt 0.6620 0.5603 0.0000
vt 0.6620 0.6250 0.0000
vt 0.6501 0.6250 0.0000
vt 0.6501 0.5603 0.0000
# 216 texture coords

o Edificio_Base_01
g Edificio_Base_01
usemtl wire_177028149
s 2
f 1/1/1 2/2/2 3/3/3 4/4/4 
s 4
f 5/5/5 6/6/6 7/7/7 8/8/8 
s 16
f 9/9/4 10/10/3 11/11/9 12/12/10 
s 32
f 13/13/3 14/14/2 15/15/11 16/16/9 
s 64
f 2/17/2 1/18/1 17/19/12 18/20/11 
s 8
f 19/21/13 20/22/10 21/23/14 22/24/12 
s 16
f 23/25/9 24/26/9 25/27/10 26/28/10 
s 64
f 22/29/12 21/30/14 27/31/15 28/32/15 
s 16
f 11/11/9 23/25/9 26/28/10 12/12/10 
s 32
f 15/15/11 29/33/15 30/34/9 16/16/9 
s 64
f 17/19/12 22/29/12 28/32/15 18/20/11 
s 8
f 20/22/10 31/35/6 32/36/5 21/23/14 
s 16
f 24/26/9 33/37/7 34/38/6 25/27/10 
s 32
f 27/39/15 35/40/8 36/41/7 37/42/16 
s 64
f 21/30/14 32/43/5 35/44/8 27/31/15 
s off
f 4/45/4 3/46/3 38/47/17 39/48/18 
f 3/46/3 40/49/9 41/50/9 38/47/17 
f 40/49/9 42/51/9 43/52/9 41/50/9 
f 42/51/9 37/53/16 44/54/9 43/52/9 
f 37/53/16 36/55/7 45/56/19 44/54/9 
f 36/55/7 31/57/6 46/58/20 45/56/19 
f 31/57/6 20/59/10 47/60/10 46/58/20 
f 20/59/10 19/61/13 48/62/10 47/60/10 
f 19/61/13 49/63/10 50/64/10 48/62/10 
f 49/63/10 4/45/4 39/48/18 50/64/10 
f 39/65/18 38/66/17 10/67/3 9/68/4 
f 38/69/17 41/70/9 11/71/9 10/72/3 
f 41/70/9 43/73/9 23/74/9 11/71/9 
f 43/73/9 44/75/9 24/76/9 23/74/9 
f 44/75/9 45/77/19 33/78/7 24/76/9 
f 45/79/19 46/80/20 34/81/6 33/82/7 
f 46/83/20 47/84/10 25/85/10 34/86/6 
f 47/84/10 48/87/10 26/88/10 25/85/10 
f 48/87/10 50/89/10 12/90/10 26/88/10 
f 50/89/10 39/91/18 9/92/4 12/90/10 
s 1
f 51/93/21 52/94/22 30/34/9 29/33/15 
s off
f 3/95/3 2/96/2 53/97/23 54/98/24 
f 2/96/2 18/99/11 55/100/11 53/97/23 
f 18/99/11 28/101/15 56/102/15 55/100/11 
f 28/101/15 27/39/15 57/103/25 56/102/15 
f 27/39/15 37/42/16 58/104/26 57/103/25 
f 37/42/16 42/105/9 59/106/9 58/104/26 
f 42/105/9 40/107/9 60/108/9 59/106/9 
f 40/107/9 3/95/3 54/98/24 60/108/9 
f 54/109/24 53/110/23 14/111/2 13/112/3 
f 53/113/23 55/114/11 15/115/11 14/116/2 
f 55/114/11 56/117/15 29/118/15 15/115/11 
f 56/117/15 57/119/25 51/120/21 29/118/15 
f 57/121/25 58/122/26 52/123/22 51/124/21 
f 58/125/26 59/126/9 30/127/9 52/128/22 
f 59/126/9 60/129/9 16/130/9 30/127/9 
f 60/129/9 54/131/24 13/132/3 16/130/9 
s 1
f 61/133/10 62/134/27 63/135/28 64/136/14 
s 4
f 64/136/14 65/137/1 66/138/4 61/133/10 
s off
f 1/139/1 4/140/4 67/141/29 68/142/30 
f 4/140/4 49/143/10 69/144/10 67/141/29 
f 49/143/10 19/21/13 70/145/31 69/144/10 
f 19/21/13 22/24/12 71/146/32 70/145/31 
f 22/24/12 17/147/12 72/148/12 71/146/32 
f 17/147/12 1/139/1 68/142/30 72/148/12 
f 68/149/30 67/150/29 66/151/4 65/152/1 
f 67/153/29 69/154/10 61/155/10 66/156/4 
f 69/154/10 70/157/31 62/158/27 61/155/10 
f 70/159/31 71/160/32 63/161/28 62/162/27 
f 71/163/32 72/164/12 64/165/14 63/166/28 
f 72/164/12 68/167/30 65/168/1 64/165/14 
f 32/169/5 31/170/6 73/171/33 74/172/34 
f 31/170/6 36/173/7 75/174/35 73/171/33 
f 36/173/7 35/175/8 76/176/36 75/174/35 
f 35/175/8 32/169/5 74/172/34 76/176/36 
f 74/177/34 73/178/33 77/179/6 78/180/5 
f 73/181/33 75/182/35 79/183/7 77/184/6 
f 75/185/35 76/186/36 80/187/8 79/188/7 
f 76/189/36 74/190/34 78/191/5 80/192/8 
f 78/193/5 77/194/6 81/195/33 82/196/34 
f 77/194/6 79/197/7 83/198/35 81/195/33 
f 79/197/7 80/199/8 84/200/36 83/198/35 
f 80/199/8 78/193/5 82/196/34 84/200/36 
f 82/201/34 81/202/33 6/203/6 5/204/5 
f 81/205/33 83/206/35 7/207/7 6/208/6 
f 83/209/35 84/210/36 8/211/8 7/212/7 
f 84/213/36 82/214/34 5/215/5 8/216/8 
# 82 polygons

