# 3ds Max Wavefront OBJ Exporter v0.97b - (c)2007 guruware
# File Created: 22.09.2020 00:28:58

mtllib Puerta.mtl

#
# object Ventana001
#

v  -30.7383 0.0000 1.2329
v  -30.7383 0.0000 -0.0000
v  36.3413 0.0000 -0.0000
v  36.3413 0.0000 1.2329
v  -30.7383 115.4997 1.2329
v  36.3413 115.4997 1.2329
v  36.3413 115.4997 -0.0000
v  -30.7383 115.4997 -0.0000
v  -28.7383 2.0000 0.7176
v  34.3413 2.0000 0.7176
v  34.3413 113.4997 0.7176
v  -28.7383 113.4997 0.7176
v  34.3413 2.0000 1.2329
v  -28.7383 2.0000 1.2329
v  34.3413 113.4997 1.2329
v  -28.7383 113.4997 1.2329
# 16 vertices

vn -0.5774 -0.5774 0.5774
vn -0.7071 -0.7071 -0.0000
vn 0.7071 -0.7071 -0.0000
vn 0.5774 -0.5774 0.5774
vn -0.5774 0.5774 0.5774
vn 0.5774 0.5774 0.5774
vn 0.7071 0.7071 -0.0000
vn -0.7071 0.7071 -0.0000
vn -0.3015 0.3015 0.9045
vn 0.3015 0.3015 0.9045
vn -0.3015 -0.3015 0.9045
vn 0.3015 -0.3015 0.9045
# 12 vertex normals

vt 0.2809 0.6361 0.0000
vt 0.2809 0.7677 0.0000
vt 0.0176 0.7677 0.0000
vt 0.0176 0.6361 0.0000
vt 0.4015 0.6062 0.0000
vt 0.6648 0.6062 0.0000
vt 0.6648 0.7379 0.0000
vt 0.4015 0.7379 0.0000
vt 0.3929 0.0005 0.0000
vt 0.7600 0.0005 0.0000
vt 0.7600 0.6021 0.0000
vt 0.3929 0.6021 0.0000
vt 0.7896 0.4313 0.0000
vt 0.9995 0.4313 0.0000
vt 0.9995 0.8510 0.0000
vt 0.7896 0.8510 0.0000
vt 0.0005 0.0005 0.0000
vt 0.3890 0.0005 0.0000
vt 0.3783 0.0112 0.0000
vt 0.0112 0.0112 0.0000
vt 0.3889 0.6234 0.0000
vt 0.3782 0.6127 0.0000
vt 0.0005 0.6235 0.0000
vt 0.0112 0.6128 0.0000
vt 0.0005 0.9995 0.0000
vt 0.0005 0.6361 0.0000
vt 0.0068 0.6361 0.0000
vt 0.0068 0.9995 0.0000
vt 0.7872 0.0005 0.0000
vt 0.7872 0.5945 0.0000
vt 0.7768 0.5945 0.0000
vt 0.7768 0.0005 0.0000
vt 0.3639 0.6339 0.0000
vt 0.0005 0.6339 0.0000
vt 0.0005 0.6275 0.0000
vt 0.3639 0.6275 0.0000
vt 0.7640 0.5945 0.0000
vt 0.7640 0.0005 0.0000
vt 0.7744 0.0005 0.0000
vt 0.7744 0.5945 0.0000
vt 0.7896 0.0005 0.0000
vt 0.9995 0.0005 0.0000
vt 0.9995 0.4202 0.0000
vt 0.7896 0.4202 0.0000
# 44 texture coords

o Ventana001
g Ventana001
usemtl wire_176026026
s 2
f 1/1/1 2/2/2 3/3/3 4/4/4 
s 4
f 5/5/5 6/6/6 7/7/7 8/8/8 
s 8
f 9/9/6 10/10/5 11/11/1 12/12/4 
s 16
f 4/13/4 3/14/3 7/15/7 6/16/6 
s off
f 1/17/1 4/18/4 13/19/9 14/20/10 
f 4/18/4 6/21/6 15/22/11 13/19/9 
f 6/21/6 5/23/5 16/24/12 15/22/11 
f 5/23/5 1/17/1 14/20/10 16/24/12 
f 14/25/10 13/26/9 10/27/5 9/28/6 
f 13/29/9 15/30/11 11/31/1 10/32/5 
f 15/33/11 16/34/12 12/35/4 11/36/1 
f 16/37/12 14/38/10 9/39/6 12/40/4 
s 64
f 2/41/2 1/42/1 5/43/5 8/44/8 
# 13 polygons

